# xmcd
#
# Track frame offsets: 
#        183
#        27780
#        55883
#        79353
#        100365
#        130935
#        154963
#        186063
#
# Disc length: 2556 seconds
#
# Revision: 4
# Processed by: cddbd v1.5.2PL0 Copyright (c) Steve Scherf et al.
# Submitted via: ExactAudioCopyFreeDBPlugin 1.0
#
DISCID=6609fa08
DTITLE=The Isley Brothers - Spend the Night
DYEAR=1989
DGENRE=Rhythm and Blues
TTITLE0=Spend the Night (Çe Soir)
TTITLE1=You'll Never Walk Alone
TTITLE2=One of a Kind
TTITLE3=Real Woman
TTITLE4=Come Together
TTITLE5=If You Ever Need Somebody
TTITLE6=Baby Come Back Home
TTITLE7=One of a Kind (Reprise)
EXTD=
EXTT0=
EXTT1=
EXTT2=
EXTT3=
EXTT4=
EXTT5=
EXTT6=
EXTT7=
PLAYORDER=
